<?xml version="1.0" encoding="UTF-8"?>
<svg width="1200pt" height="1200pt" version="1.1" viewBox="0 0 1200 1200" xmlns="http://www.w3.org/2000/svg">
 <path d="m176.97 282.37c0-18.617 7.3945-36.473 20.559-49.637 13.164-13.164 31.02-20.559 49.637-20.559h706.92c18.633-0.023437 36.508 7.3594 49.695 20.527 13.184 13.168 20.59 31.035 20.59 49.668 0 18.633-7.4062 36.504-20.59 49.668-13.188 13.168-31.062 20.555-49.695 20.527h-706.92c-18.617 0-36.473-7.3945-49.637-20.559-13.164-13.164-20.559-31.02-20.559-49.637zm847.31 296.46c0 18.617-7.3984 36.469-20.562 49.633-13.164 13.168-31.02 20.562-49.633 20.562h-706.92c-25.059-0.035156-48.203-13.422-60.723-35.129-12.523-21.711-12.523-48.445 0-70.156 12.52-21.707 35.664-35.094 60.723-35.129h706.92c18.617 0 36.477 7.4023 49.641 20.57 13.164 13.168 20.559 31.027 20.555 49.648zm0 296.43c0 18.617-7.3984 36.473-20.562 49.637-13.164 13.164-31.02 20.559-49.633 20.559h-706.92c-25.055-0.03125-48.195-13.418-60.715-35.125-12.52-21.703-12.52-48.438 0-70.141 12.52-21.707 35.66-35.094 60.715-35.125h706.92c18.613 0 36.469 7.3945 49.633 20.559 13.164 13.164 20.562 31.02 20.562 49.637z"/>
</svg>
